<mxfile host="app.diagrams.net" agent="Mozilla/5.0 (X11; Linux x86_64; rv:132.0) Gecko/20100101 Firefox/132.0" version="24.7.12">
  <diagram name="Page-1" id="c4acf3e9-155e-7222-9cf6-157b1a14988f">
    <mxGraphModel dx="3240" dy="1252" grid="1" gridSize="10" guides="1" tooltips="1" connect="1" arrows="1" fold="1" page="1" pageScale="1" pageWidth="850" pageHeight="1100" background="none" math="0" shadow="0">
      <root>
        <mxCell id="0" />
        <mxCell id="1" parent="0" />
        <mxCell id="ql8foVnYcQi2ljDCD5j9-20" style="edgeStyle=orthogonalEdgeStyle;rounded=0;orthogonalLoop=1;jettySize=auto;html=1;exitX=1.003;exitY=0.868;exitDx=0;exitDy=0;entryX=0.5;entryY=0;entryDx=0;entryDy=0;exitPerimeter=0;" edge="1" parent="1" source="ql8foVnYcQi2ljDCD5j9-1" target="ql8foVnYcQi2ljDCD5j9-4">
          <mxGeometry relative="1" as="geometry">
            <Array as="points">
              <mxPoint x="-10" y="466" />
              <mxPoint x="-10" y="515" />
              <mxPoint x="-257" y="515" />
            </Array>
          </mxGeometry>
        </mxCell>
        <mxCell id="ql8foVnYcQi2ljDCD5j9-1" value="&lt;p style=&quot;margin:0px;margin-top:4px;text-align:center;&quot;&gt;Benchmark&lt;br&gt;&lt;/p&gt;&lt;hr size=&quot;1&quot;&gt;&lt;p style=&quot;margin:0px;margin-left:4px;&quot;&gt;+ warmup_count: usize&lt;br&gt;+ count: usize&lt;/p&gt;&lt;p style=&quot;margin:0px;margin-left:4px;&quot;&gt;+ finalize_encoder_callback: Option&amp;lt;&amp;amp;dyn Fn(&amp;amp;mut CommandEncoder)&amp;gt;&lt;/p&gt;&lt;hr size=&quot;1&quot;&gt;&lt;p style=&quot;margin:0px;margin-left:4px;&quot;&gt;+ run(BenchmarkComputePipeline): BenchmarkResults&lt;br&gt;&lt;/p&gt;" style="verticalAlign=top;align=left;overflow=fill;fontSize=12;fontFamily=Helvetica;html=1;rounded=0;shadow=0;comic=0;labelBackgroundColor=none;strokeWidth=1" vertex="1" parent="1">
          <mxGeometry x="-490" y="370" width="465" height="110" as="geometry" />
        </mxCell>
        <mxCell id="ql8foVnYcQi2ljDCD5j9-2" value="&lt;p style=&quot;margin:0px;margin-top:4px;text-align:center;&quot;&gt;BenchmarkComputePipeline&lt;br&gt;&lt;/p&gt;&lt;hr size=&quot;1&quot;&gt;&lt;hr size=&quot;1&quot;&gt;&lt;p style=&quot;margin:0px;margin-left:4px;&quot;&gt;+ new(PipelineParameters)&lt;br&gt;&lt;/p&gt;" style="verticalAlign=top;align=left;overflow=fill;fontSize=12;fontFamily=Helvetica;html=1;rounded=0;shadow=0;comic=0;labelBackgroundColor=none;strokeWidth=1" vertex="1" parent="1">
          <mxGeometry x="-370" y="280" width="260" height="60" as="geometry" />
        </mxCell>
        <mxCell id="ql8foVnYcQi2ljDCD5j9-3" value="&lt;p style=&quot;margin:0px;margin-top:4px;text-align:center;&quot;&gt;GPUContext&lt;br&gt;&lt;/p&gt;&lt;hr size=&quot;1&quot;&gt;&lt;hr size=&quot;1&quot;&gt;&lt;p style=&quot;margin:0px;margin-left:4px;&quot;&gt;+ new(Option&amp;lt;Features&amp;gt;)&lt;br&gt;+&amp;nbsp;create_buffer(&amp;amp;BufferDescriptor): AsyncBuffer&lt;/p&gt;&lt;p style=&quot;margin:0px;margin-left:4px;&quot;&gt;+&amp;nbsp;create_texture(&amp;amp;TextureDescriptor): Texture&lt;/p&gt;" style="verticalAlign=top;align=left;overflow=fill;fontSize=12;fontFamily=Helvetica;html=1;rounded=0;shadow=0;comic=0;labelBackgroundColor=none;strokeWidth=1" vertex="1" parent="1">
          <mxGeometry x="-390" y="20" width="320" height="90" as="geometry" />
        </mxCell>
        <mxCell id="ql8foVnYcQi2ljDCD5j9-4" value="&lt;p style=&quot;margin:0px;margin-top:4px;text-align:center;&quot;&gt;BenchmarkResults&lt;br&gt;&lt;/p&gt;&lt;hr size=&quot;1&quot;&gt;&lt;p style=&quot;margin:0px;margin-left:4px;&quot;&gt;+ count: usize&lt;br&gt;+ total_time_spent: f64&lt;/p&gt;" style="verticalAlign=top;align=left;overflow=fill;fontSize=12;fontFamily=Helvetica;html=1;rounded=0;shadow=0;comic=0;labelBackgroundColor=none;strokeWidth=1" vertex="1" parent="1">
          <mxGeometry x="-352.5" y="550" width="190" height="80" as="geometry" />
        </mxCell>
        <mxCell id="ql8foVnYcQi2ljDCD5j9-18" style="edgeStyle=orthogonalEdgeStyle;rounded=0;orthogonalLoop=1;jettySize=auto;html=1;exitX=0.998;exitY=0.108;exitDx=0;exitDy=0;entryX=1;entryY=0.75;entryDx=0;entryDy=0;exitPerimeter=0;" edge="1" parent="1" source="ql8foVnYcQi2ljDCD5j9-6" target="ql8foVnYcQi2ljDCD5j9-2">
          <mxGeometry relative="1" as="geometry" />
        </mxCell>
        <mxCell id="ql8foVnYcQi2ljDCD5j9-6" value="&lt;p style=&quot;margin:0px;margin-top:4px;text-align:center;&quot;&gt;PipelineParameters&lt;br&gt;&lt;/p&gt;&lt;hr size=&quot;1&quot;&gt;&lt;p style=&quot;margin:0px;margin-left:4px;&quot;&gt;+ shader: ShaderModuleDescriptor&lt;br&gt;+ entry_point: &amp;amp;str&lt;/p&gt;&lt;p style=&quot;margin:0px;margin-left:4px;&quot;&gt;+ bind_group_0: HashMap&amp;lt;u32, BindingResource&amp;gt;&lt;/p&gt;&lt;p style=&quot;margin:0px;margin-left:4px;&quot;&gt;+ workgroups: (u32, u32, u32)&lt;/p&gt;&lt;p style=&quot;margin:0px;margin-left:4px;&quot;&gt;+ gpu: &amp;amp;GPUContext&lt;/p&gt;&lt;p style=&quot;margin:0px;margin-left:4px;&quot;&gt;&lt;/p&gt;" style="verticalAlign=top;align=left;overflow=fill;fontSize=12;fontFamily=Helvetica;html=1;rounded=0;shadow=0;comic=0;labelBackgroundColor=none;strokeWidth=1;strokeColor=default;" vertex="1" parent="1">
          <mxGeometry x="-410" y="130" width="330" height="110" as="geometry" />
        </mxCell>
        <mxCell id="ql8foVnYcQi2ljDCD5j9-17" style="edgeStyle=orthogonalEdgeStyle;rounded=0;orthogonalLoop=1;jettySize=auto;html=1;exitX=0;exitY=0.139;exitDx=0;exitDy=0;entryX=0;entryY=0.884;entryDx=0;entryDy=0;entryPerimeter=0;exitPerimeter=0;" edge="1" parent="1" source="ql8foVnYcQi2ljDCD5j9-3" target="ql8foVnYcQi2ljDCD5j9-6">
          <mxGeometry relative="1" as="geometry" />
        </mxCell>
        <mxCell id="ql8foVnYcQi2ljDCD5j9-19" style="edgeStyle=orthogonalEdgeStyle;rounded=0;orthogonalLoop=1;jettySize=auto;html=1;exitX=0;exitY=0.25;exitDx=0;exitDy=0;entryX=0.001;entryY=0.884;entryDx=0;entryDy=0;entryPerimeter=0;" edge="1" parent="1" source="ql8foVnYcQi2ljDCD5j9-2" target="ql8foVnYcQi2ljDCD5j9-1">
          <mxGeometry relative="1" as="geometry">
            <mxPoint x="-560" y="480" as="targetPoint" />
          </mxGeometry>
        </mxCell>
      </root>
    </mxGraphModel>
  </diagram>
</mxfile>
